<svg xmlns="http://www.w3.org/2000/svg" version="1.1" xmlns:xlink="http://www.w3.org/1999/xlink" width="512" height="512" x="0" y="0" viewBox="0 0 512 512" style="enable-background:new 0 0 512 512" xml:space="preserve" class=""><g><path d="M434.931 227.069C428.207 184.032 390.897 151 346 151c-16.89 0-33.12 4.673-47.197 13.389C277.387 128.397 238.832 106 196 106c-66.167 0-120 53.833-120 120 0 .41 0 .835.015 1.245C33.49 234.408 0 271.483 0 316c0 49.629 41.371 90 91 90h330c49.629 0 91-40.371 91-90 0-44.897-34.032-82.207-77.069-88.931z" fill="#e8e4de" opacity="1" data-original="#000000"></path></g></svg>