<svg xmlns="http://www.w3.org/2000/svg" version="1.1" xmlns:xlink="http://www.w3.org/1999/xlink" width="512" height="512" x="0" y="0" viewBox="0 0 32 32" style="enable-background:new 0 0 512 512" xml:space="preserve" class=""><g><path d="M26 18.33v4.35c0 1.58-.93 2.99-2.37 3.65-1.75.8-4.4 1.67-7.63 1.67s-5.88-.87-7.64-1.67C6.93 25.67 6 24.26 6 22.68v-4.35l7.11 3.25c.91.42 1.89.63 2.89.63s1.98-.21 2.89-.63zM30 16.5V23c0 .55-.45 1-1 1s-1-.45-1-1v-5.58z" fill="#272e35" opacity="1" data-original="#000000" class=""></path><path d="M13.938 19.764a4.963 4.963 0 0 0 4.124 0l12.771-5.838C31.553 13.597 32 12.9 32 12.107s-.447-1.491-1.167-1.82L18.062 4.45a4.954 4.954 0 0 0-4.123 0L1.167 10.286C.447 10.616 0 11.313 0 12.106s.447 1.49 1.167 1.82l12.771 5.837z" fill="#272e35" opacity="1" data-original="#000000" class=""></path></g></svg>