<svg xmlns="http://www.w3.org/2000/svg" version="1.1" xmlns:xlink="http://www.w3.org/1999/xlink" width="512" height="512" x="0" y="0" viewBox="0 0 512.005 512.005" style="enable-background:new 0 0 512 512" xml:space="preserve" class=""><g><path d="M32.415 397.24H0v30h32.415v38.692H0v30h512v-30H368.329V338.771h2.865c24.831 0 45.032-20.201 45.032-45.032V290.6h-30v3.139c0 8.289-6.744 15.032-15.032 15.032h-2.865v-88.369h22.124c22.705 0 41.959-15.058 48.304-35.709h16.012c31.56 0 57.236-25.676 57.236-57.236v-.38c0-26.839-18.57-49.423-43.536-55.579-6.229-31.555-34.113-55.425-67.468-55.425H290.064c-32.769 0-60.257 23.037-67.119 53.768h-7.764c-31.561 0-57.237 25.676-57.237 57.236v.38c0 31.561 25.676 57.236 57.237 57.236h18.698c5.585 18.178 21.174 32.016 40.313 35.072v4.879c0 33.229 27.034 60.264 60.264 60.264h3.874v181.026h-77.071V427.24h32.415v-30h-32.415V289.78H32.415zm30-24.891h168.843v24.892H62.415zm0 54.891h168.843v38.692H62.415zm275.914-172.334h-3.874c-16.688 0-30.264-13.576-30.264-30.264v-4.241h34.138z" fill="#272e35" opacity="1" data-original="#000000" class=""></path></g></svg>