<svg xmlns="http://www.w3.org/2000/svg" version="1.1" xmlns:xlink="http://www.w3.org/1999/xlink" width="512" height="512" x="0" y="0" viewBox="0 0 64 64" style="enable-background:new 0 0 512 512" xml:space="preserve" class=""><g><path d="M6.535 10.257C7.897 8.895 9.563 7.94 11.47 7.38a2.78 2.78 0 0 1 3.234 1.362l6.63 12.47a2.768 2.768 0 0 1-.487 3.257l-4.563 4.563c1.07 3.607 3.574 7.724 7.263 11.413s7.823 6.209 11.413 7.263l4.562-4.562a2.77 2.77 0 0 1 3.259-.486l12.482 6.649a2.776 2.776 0 0 1 1.353 3.254c-.573 1.883-1.525 3.539-2.881 4.895-7.395 7.395-23.946 2.833-36.99-10.211C3.719 34.22-.86 17.652 6.535 10.257z" fill="#232323" opacity="1" data-original="#000000" class=""></path><path d="M51.985 29.111H35.814a1 1 0 0 1-1-1v-16.17a1 1 0 1 1 2 0v15.17h15.171a1 1 0 1 1 0 2z" fill="#232323" opacity="1" data-original="#000000" class=""></path><path d="M35.814 29.111a.999.999 0 0 1-.707-1.707L60.22 2.293a.999.999 0 1 1 1.414 1.414L36.522 28.818a.997.997 0 0 1-.707.293z" fill="#232323" opacity="1" data-original="#000000" class=""></path></g></svg>